<mxfile host="app.diagrams.net" modified="2024-02-09T01:47:35.134Z" agent="Mozilla/5.0 (Windows NT 10.0; Win64; x64) AppleWebKit/537.36 (KHTML, like Gecko) Chrome/121.0.0.0 Safari/537.36" etag="s1QPhQt4RGlBmqn0BViz" version="23.1.2" type="device">
  <diagram name="페이지-1" id="yqJjdgmA4nHY2cZOTzCT">
    <mxGraphModel dx="2234" dy="1586" grid="1" gridSize="10" guides="1" tooltips="1" connect="1" arrows="1" fold="1" page="0" pageScale="1" pageWidth="827" pageHeight="1169" math="0" shadow="0">
      <root>
        <mxCell id="0" />
        <mxCell id="1" parent="0" />
        <mxCell id="NPe-8h-_CcpF1HoH4NOW-5" value="" style="edgeStyle=orthogonalEdgeStyle;rounded=0;orthogonalLoop=1;jettySize=auto;html=1;" parent="1" edge="1">
          <mxGeometry relative="1" as="geometry">
            <mxPoint x="510" y="178.5" as="sourcePoint" />
            <mxPoint x="510.0588235294117" y="239.5" as="targetPoint" />
          </mxGeometry>
        </mxCell>
        <mxCell id="NPe-8h-_CcpF1HoH4NOW-21" value="" style="edgeStyle=orthogonalEdgeStyle;rounded=0;orthogonalLoop=1;jettySize=auto;html=1;" parent="1" edge="1">
          <mxGeometry relative="1" as="geometry">
            <mxPoint x="510" y="299.5" as="sourcePoint" />
            <mxPoint x="509.96551724137953" y="358.51724137931024" as="targetPoint" />
          </mxGeometry>
        </mxCell>
        <mxCell id="NPe-8h-_CcpF1HoH4NOW-9" value="" style="edgeStyle=orthogonalEdgeStyle;rounded=0;orthogonalLoop=1;jettySize=auto;html=1;exitX=1;exitY=0.5;exitDx=0;exitDy=0;entryX=0;entryY=0.5;entryDx=0;entryDy=0;entryPerimeter=0;" parent="1" source="NPe-8h-_CcpF1HoH4NOW-161" target="NPe-8h-_CcpF1HoH4NOW-165" edge="1">
          <mxGeometry relative="1" as="geometry">
            <mxPoint x="770" y="388.5" as="sourcePoint" />
            <mxPoint x="650" y="388.5833333333335" as="targetPoint" />
          </mxGeometry>
        </mxCell>
        <mxCell id="NPe-8h-_CcpF1HoH4NOW-158" value="조회" style="edgeLabel;html=1;align=center;verticalAlign=middle;resizable=0;points=[];" parent="NPe-8h-_CcpF1HoH4NOW-9" vertex="1" connectable="0">
          <mxGeometry x="-0.038" relative="1" as="geometry">
            <mxPoint as="offset" />
          </mxGeometry>
        </mxCell>
        <mxCell id="NPe-8h-_CcpF1HoH4NOW-162" value="" style="edgeStyle=orthogonalEdgeStyle;rounded=0;orthogonalLoop=1;jettySize=auto;html=1;" parent="1" edge="1">
          <mxGeometry relative="1" as="geometry">
            <mxPoint x="715" y="422.25" as="sourcePoint" />
            <mxPoint x="715" y="448.5" as="targetPoint" />
          </mxGeometry>
        </mxCell>
        <mxCell id="NPe-8h-_CcpF1HoH4NOW-48" style="edgeStyle=orthogonalEdgeStyle;rounded=0;orthogonalLoop=1;jettySize=auto;html=1;exitX=0;exitY=0.5;exitDx=0;exitDy=0;exitPerimeter=0;entryX=1;entryY=0.5;entryDx=0;entryDy=0;entryPerimeter=0;" parent="1" source="NPe-8h-_CcpF1HoH4NOW-103" edge="1" target="NPe-8h-_CcpF1HoH4NOW-113">
          <mxGeometry relative="1" as="geometry">
            <mxPoint x="361" y="-531" as="sourcePoint" />
            <mxPoint x="290" y="-470" as="targetPoint" />
            <Array as="points">
              <mxPoint x="310" y="-530" />
              <mxPoint x="310" y="-530" />
            </Array>
          </mxGeometry>
        </mxCell>
        <mxCell id="NPe-8h-_CcpF1HoH4NOW-17" value="리스트에 띄울 내용&lt;br&gt;- 상품명&lt;br&gt;- 판매가&lt;br&gt;- 할인율&lt;br&gt;- 재고 수량&lt;br&gt;- 판매 유무&lt;br&gt;- 등록일&lt;br&gt;- 카테고리" style="text;html=1;strokeColor=none;fillColor=none;align=left;verticalAlign=middle;whiteSpace=wrap;rounded=0;" parent="1" vertex="1">
          <mxGeometry x="295" y="-680" width="110" height="110.5" as="geometry" />
        </mxCell>
        <mxCell id="NPe-8h-_CcpF1HoH4NOW-25" style="edgeStyle=orthogonalEdgeStyle;rounded=0;orthogonalLoop=1;jettySize=auto;html=1;exitX=0;exitY=0.5;exitDx=0;exitDy=0;entryX=0.5;entryY=1;entryDx=0;entryDy=0;" parent="1" target="NPe-8h-_CcpF1HoH4NOW-161" edge="1">
          <mxGeometry relative="1" as="geometry">
            <mxPoint x="655" y="478.5" as="sourcePoint" />
            <mxPoint x="510" y="478.5" as="targetPoint" />
          </mxGeometry>
        </mxCell>
        <mxCell id="NPe-8h-_CcpF1HoH4NOW-164" value="YES" style="edgeLabel;html=1;align=center;verticalAlign=middle;resizable=0;points=[];" parent="NPe-8h-_CcpF1HoH4NOW-25" vertex="1" connectable="0">
          <mxGeometry x="-0.2276" relative="1" as="geometry">
            <mxPoint as="offset" />
          </mxGeometry>
        </mxCell>
        <mxCell id="NPe-8h-_CcpF1HoH4NOW-22" style="edgeStyle=orthogonalEdgeStyle;rounded=0;orthogonalLoop=1;jettySize=auto;html=1;exitX=0.5;exitY=1;exitDx=0;exitDy=0;exitPerimeter=0;" parent="1" edge="1">
          <mxGeometry relative="1" as="geometry">
            <mxPoint x="715" y="422.25" as="sourcePoint" />
            <mxPoint x="715" y="422.25" as="targetPoint" />
          </mxGeometry>
        </mxCell>
        <mxCell id="NPe-8h-_CcpF1HoH4NOW-35" value="" style="edgeStyle=orthogonalEdgeStyle;rounded=0;orthogonalLoop=1;jettySize=auto;html=1;exitX=0.5;exitY=1;exitDx=0;exitDy=0;entryX=0.5;entryY=0;entryDx=0;entryDy=0;entryPerimeter=0;" parent="1" source="NPe-8h-_CcpF1HoH4NOW-108" target="NPe-8h-_CcpF1HoH4NOW-112" edge="1">
          <mxGeometry relative="1" as="geometry">
            <mxPoint x="864" y="-400.20000000000005" as="sourcePoint" />
            <mxPoint x="960" y="-400.20000000000005" as="targetPoint" />
          </mxGeometry>
        </mxCell>
        <mxCell id="NPe-8h-_CcpF1HoH4NOW-37" value="조회" style="edgeLabel;html=1;align=center;verticalAlign=middle;resizable=0;points=[];" parent="NPe-8h-_CcpF1HoH4NOW-35" vertex="1" connectable="0">
          <mxGeometry x="0.0356" y="-1" relative="1" as="geometry">
            <mxPoint as="offset" />
          </mxGeometry>
        </mxCell>
        <mxCell id="NPe-8h-_CcpF1HoH4NOW-53" value="" style="edgeStyle=orthogonalEdgeStyle;rounded=0;orthogonalLoop=1;jettySize=auto;html=1;exitX=0;exitY=0.5;exitDx=0;exitDy=0;exitPerimeter=0;entryX=1;entryY=0.5;entryDx=0;entryDy=0;" parent="1" source="NPe-8h-_CcpF1HoH4NOW-170" target="NPe-8h-_CcpF1HoH4NOW-172" edge="1">
          <mxGeometry relative="1" as="geometry">
            <mxPoint x="-260" y="295.25" as="sourcePoint" />
            <mxPoint x="-400" y="285.25" as="targetPoint" />
          </mxGeometry>
        </mxCell>
        <mxCell id="NPe-8h-_CcpF1HoH4NOW-66" value="- 카테고리 코드 생성" style="text;html=1;strokeColor=none;fillColor=none;align=left;verticalAlign=middle;whiteSpace=wrap;rounded=0;" parent="1" vertex="1">
          <mxGeometry x="-320" y="534.63" width="127" height="30" as="geometry" />
        </mxCell>
        <mxCell id="NPe-8h-_CcpF1HoH4NOW-67" value="- 대분류&lt;br&gt;- 중분류&lt;br&gt;- 소분류" style="text;html=1;strokeColor=none;fillColor=none;align=left;verticalAlign=middle;whiteSpace=wrap;rounded=0;" parent="1" vertex="1">
          <mxGeometry x="-330" y="290.62" width="50" height="60" as="geometry" />
        </mxCell>
        <mxCell id="NPe-8h-_CcpF1HoH4NOW-95" value="" style="edgeStyle=orthogonalEdgeStyle;rounded=0;orthogonalLoop=1;jettySize=auto;html=1;" parent="1" edge="1">
          <mxGeometry relative="1" as="geometry">
            <mxPoint x="40.05882352941171" y="-316.25" as="sourcePoint" />
            <mxPoint x="40" y="-266.25" as="targetPoint" />
          </mxGeometry>
        </mxCell>
        <mxCell id="NPe-8h-_CcpF1HoH4NOW-96" value="변경" style="edgeLabel;html=1;align=center;verticalAlign=middle;resizable=0;points=[];" parent="NPe-8h-_CcpF1HoH4NOW-95" vertex="1" connectable="0">
          <mxGeometry x="-0.0603" relative="1" as="geometry">
            <mxPoint as="offset" />
          </mxGeometry>
        </mxCell>
        <mxCell id="NPe-8h-_CcpF1HoH4NOW-99" style="edgeStyle=orthogonalEdgeStyle;rounded=0;orthogonalLoop=1;jettySize=auto;html=1;dashed=1;entryX=0;entryY=0.5;entryDx=0;entryDy=0;" parent="1" edge="1" target="NPe-8h-_CcpF1HoH4NOW-100">
          <mxGeometry relative="1" as="geometry">
            <mxPoint x="-175" y="-391.25" as="targetPoint" />
            <mxPoint x="100" y="-381.25" as="sourcePoint" />
          </mxGeometry>
        </mxCell>
        <mxCell id="NPe-8h-_CcpF1HoH4NOW-102" value="" style="edgeStyle=orthogonalEdgeStyle;rounded=0;orthogonalLoop=1;jettySize=auto;html=1;entryX=0.5;entryY=0;entryDx=0;entryDy=0;entryPerimeter=0;" parent="1" source="NPe-8h-_CcpF1HoH4NOW-100" target="nD0UYpK1AcCFRPNusd-Y-6" edge="1">
          <mxGeometry relative="1" as="geometry">
            <mxPoint x="215" y="-301.25" as="targetPoint" />
          </mxGeometry>
        </mxCell>
        <mxCell id="nD0UYpK1AcCFRPNusd-Y-7" value="저장" style="edgeLabel;html=1;align=center;verticalAlign=middle;resizable=0;points=[];" vertex="1" connectable="0" parent="NPe-8h-_CcpF1HoH4NOW-102">
          <mxGeometry x="-0.1027" y="2" relative="1" as="geometry">
            <mxPoint as="offset" />
          </mxGeometry>
        </mxCell>
        <mxCell id="NPe-8h-_CcpF1HoH4NOW-100" value="변경 사항 Log 저장" style="whiteSpace=wrap;html=1;" parent="1" vertex="1">
          <mxGeometry x="185" y="-411.25" width="120" height="60" as="geometry" />
        </mxCell>
        <mxCell id="nD0UYpK1AcCFRPNusd-Y-18" value="" style="edgeStyle=orthogonalEdgeStyle;rounded=0;orthogonalLoop=1;jettySize=auto;html=1;" edge="1" parent="1" source="NPe-8h-_CcpF1HoH4NOW-103" target="NPe-8h-_CcpF1HoH4NOW-106">
          <mxGeometry relative="1" as="geometry" />
        </mxCell>
        <mxCell id="NPe-8h-_CcpF1HoH4NOW-103" value="상품 리스트" style="strokeWidth=2;html=1;shape=mxgraph.flowchart.display;whiteSpace=wrap;strokeColor=#FFD966;" parent="1" vertex="1">
          <mxGeometry x="370" y="-560" width="100" height="60" as="geometry" />
        </mxCell>
        <mxCell id="NPe-8h-_CcpF1HoH4NOW-105" value="" style="edgeStyle=orthogonalEdgeStyle;rounded=0;orthogonalLoop=1;jettySize=auto;html=1;" parent="1" source="NPe-8h-_CcpF1HoH4NOW-104" target="NPe-8h-_CcpF1HoH4NOW-103" edge="1">
          <mxGeometry relative="1" as="geometry" />
        </mxCell>
        <mxCell id="NPe-8h-_CcpF1HoH4NOW-104" value="상품 관리" style="strokeWidth=2;html=1;shape=mxgraph.flowchart.start_1;whiteSpace=wrap;strokeColor=#FF0000;" parent="1" vertex="1">
          <mxGeometry x="370" y="-660" width="100" height="60" as="geometry" />
        </mxCell>
        <mxCell id="nD0UYpK1AcCFRPNusd-Y-19" value="" style="edgeStyle=orthogonalEdgeStyle;rounded=0;orthogonalLoop=1;jettySize=auto;html=1;" edge="1" parent="1" source="NPe-8h-_CcpF1HoH4NOW-106" target="NPe-8h-_CcpF1HoH4NOW-107">
          <mxGeometry relative="1" as="geometry" />
        </mxCell>
        <mxCell id="NPe-8h-_CcpF1HoH4NOW-106" value="검색 정보 입력" style="shape=parallelogram;html=1;strokeWidth=2;perimeter=parallelogramPerimeter;whiteSpace=wrap;rounded=1;arcSize=12;size=0.23;strokeColor=#009900;" parent="1" vertex="1">
          <mxGeometry x="510" y="-560.25" width="160" height="60" as="geometry" />
        </mxCell>
        <mxCell id="nD0UYpK1AcCFRPNusd-Y-20" value="" style="edgeStyle=orthogonalEdgeStyle;rounded=0;orthogonalLoop=1;jettySize=auto;html=1;" edge="1" parent="1" source="NPe-8h-_CcpF1HoH4NOW-107" target="NPe-8h-_CcpF1HoH4NOW-108">
          <mxGeometry relative="1" as="geometry" />
        </mxCell>
        <mxCell id="nD0UYpK1AcCFRPNusd-Y-21" value="YES" style="edgeLabel;html=1;align=center;verticalAlign=middle;resizable=0;points=[];" vertex="1" connectable="0" parent="nD0UYpK1AcCFRPNusd-Y-20">
          <mxGeometry x="-0.43" relative="1" as="geometry">
            <mxPoint y="6" as="offset" />
          </mxGeometry>
        </mxCell>
        <mxCell id="NPe-8h-_CcpF1HoH4NOW-107" value="상품 정보 검색" style="strokeWidth=2;html=1;shape=mxgraph.flowchart.decision;whiteSpace=wrap;" parent="1" vertex="1">
          <mxGeometry x="530" y="-460.33" width="120" height="60.75" as="geometry" />
        </mxCell>
        <mxCell id="NPe-8h-_CcpF1HoH4NOW-108" value="검색 기능&lt;br style=&quot;border-color: var(--border-color);&quot;&gt;&lt;span style=&quot;&quot;&gt;- 상품명 또는 키워드&lt;/span&gt;&lt;br style=&quot;border-color: var(--border-color);&quot;&gt;&lt;span style=&quot;&quot;&gt;- 제조사 별&lt;/span&gt;&lt;br style=&quot;border-color: var(--border-color);&quot;&gt;&lt;span style=&quot;&quot;&gt;- 카테고리 코드 &lt;br&gt;&amp;nbsp; (대분류 중부류 소분류)&lt;/span&gt;&lt;br style=&quot;border-color: var(--border-color);&quot;&gt;&lt;span style=&quot;&quot;&gt;- 등록일 기준&lt;/span&gt;&lt;br style=&quot;border-color: var(--border-color);&quot;&gt;&lt;span style=&quot;&quot;&gt;- 상품 구분별&lt;br&gt;&amp;nbsp; &amp;nbsp;(예약 상품, 신규, 입고 완료)&lt;/span&gt;" style="rounded=1;whiteSpace=wrap;html=1;absoluteArcSize=1;arcSize=14;strokeWidth=2;align=left;strokeColor=#009900;" parent="1" vertex="1">
          <mxGeometry x="505" y="-350.25" width="170" height="130" as="geometry" />
        </mxCell>
        <mxCell id="NPe-8h-_CcpF1HoH4NOW-112" value="상품 DB" style="strokeWidth=2;html=1;shape=mxgraph.flowchart.database;whiteSpace=wrap;" parent="1" vertex="1">
          <mxGeometry x="540" y="-154" width="100" height="70" as="geometry" />
        </mxCell>
        <mxCell id="nD0UYpK1AcCFRPNusd-Y-2" value="" style="edgeStyle=orthogonalEdgeStyle;rounded=0;orthogonalLoop=1;jettySize=auto;html=1;" edge="1" parent="1" source="NPe-8h-_CcpF1HoH4NOW-113">
          <mxGeometry relative="1" as="geometry">
            <mxPoint x="100" y="-529.9411764705883" as="targetPoint" />
          </mxGeometry>
        </mxCell>
        <mxCell id="nD0UYpK1AcCFRPNusd-Y-4" value="YES" style="edgeLabel;html=1;align=center;verticalAlign=middle;resizable=0;points=[];" vertex="1" connectable="0" parent="nD0UYpK1AcCFRPNusd-Y-2">
          <mxGeometry x="-0.0608" relative="1" as="geometry">
            <mxPoint as="offset" />
          </mxGeometry>
        </mxCell>
        <mxCell id="NPe-8h-_CcpF1HoH4NOW-113" value="상품 정보 수정" style="strokeWidth=2;html=1;shape=mxgraph.flowchart.decision;whiteSpace=wrap;" parent="1" vertex="1">
          <mxGeometry x="185" y="-560.25" width="120" height="60.75" as="geometry" />
        </mxCell>
        <mxCell id="NPe-8h-_CcpF1HoH4NOW-260" value="" style="edgeStyle=orthogonalEdgeStyle;rounded=0;orthogonalLoop=1;jettySize=auto;html=1;" parent="1" source="NPe-8h-_CcpF1HoH4NOW-137" target="NPe-8h-_CcpF1HoH4NOW-259" edge="1">
          <mxGeometry relative="1" as="geometry" />
        </mxCell>
        <mxCell id="NPe-8h-_CcpF1HoH4NOW-137" value="상품 등록" style="strokeWidth=2;html=1;shape=mxgraph.flowchart.start_1;whiteSpace=wrap;strokeColor=#FF0000;" parent="1" vertex="1">
          <mxGeometry x="461" y="30" width="100" height="60" as="geometry" />
        </mxCell>
        <mxCell id="NPe-8h-_CcpF1HoH4NOW-175" value="" style="edgeStyle=orthogonalEdgeStyle;rounded=0;orthogonalLoop=1;jettySize=auto;html=1;" parent="1" source="NPe-8h-_CcpF1HoH4NOW-139" target="NPe-8h-_CcpF1HoH4NOW-174" edge="1">
          <mxGeometry relative="1" as="geometry" />
        </mxCell>
        <mxCell id="NPe-8h-_CcpF1HoH4NOW-139" value="카테고리 정보 입력" style="shape=parallelogram;html=1;strokeWidth=2;perimeter=parallelogramPerimeter;whiteSpace=wrap;rounded=1;arcSize=12;size=0.23;strokeColor=#009900;" parent="1" vertex="1">
          <mxGeometry x="-165" y="355.25" width="160" height="60" as="geometry" />
        </mxCell>
        <mxCell id="NPe-8h-_CcpF1HoH4NOW-140" value="상품 정보 입력" style="shape=parallelogram;html=1;strokeWidth=2;perimeter=parallelogramPerimeter;whiteSpace=wrap;rounded=1;arcSize=12;size=0.23;strokeColor=#009900;" parent="1" vertex="1">
          <mxGeometry x="430" y="238.5" width="160" height="60" as="geometry" />
        </mxCell>
        <mxCell id="NPe-8h-_CcpF1HoH4NOW-142" value="" style="edgeStyle=orthogonalEdgeStyle;rounded=0;orthogonalLoop=1;jettySize=auto;html=1;exitX=0.5;exitY=1;exitDx=0;exitDy=0;entryX=0.5;entryY=0;entryDx=0;entryDy=0;" parent="1" target="NPe-8h-_CcpF1HoH4NOW-156" edge="1">
          <mxGeometry relative="1" as="geometry">
            <mxPoint x="715" y="508.5" as="sourcePoint" />
            <mxPoint x="657" y="678.5" as="targetPoint" />
          </mxGeometry>
        </mxCell>
        <mxCell id="NPe-8h-_CcpF1HoH4NOW-143" value="NO" style="edgeLabel;html=1;align=center;verticalAlign=middle;resizable=0;points=[];" parent="NPe-8h-_CcpF1HoH4NOW-142" vertex="1" connectable="0">
          <mxGeometry x="-0.0493" y="-2" relative="1" as="geometry">
            <mxPoint y="-2" as="offset" />
          </mxGeometry>
        </mxCell>
        <mxCell id="NPe-8h-_CcpF1HoH4NOW-145" value="" style="edgeStyle=orthogonalEdgeStyle;rounded=0;orthogonalLoop=1;jettySize=auto;html=1;exitX=1;exitY=0.539;exitDx=0;exitDy=0;exitPerimeter=0;entryX=0;entryY=0.5;entryDx=0;entryDy=0;entryPerimeter=0;" parent="1" source="NPe-8h-_CcpF1HoH4NOW-156" target="NPe-8h-_CcpF1HoH4NOW-167" edge="1">
          <mxGeometry relative="1" as="geometry">
            <mxPoint x="777" y="628" as="sourcePoint" />
            <mxPoint x="880" y="628.5" as="targetPoint" />
          </mxGeometry>
        </mxCell>
        <mxCell id="NPe-8h-_CcpF1HoH4NOW-146" value="저장" style="edgeLabel;html=1;align=center;verticalAlign=middle;resizable=0;points=[];" parent="NPe-8h-_CcpF1HoH4NOW-145" vertex="1" connectable="0">
          <mxGeometry x="-0.0219" y="-1" relative="1" as="geometry">
            <mxPoint x="-2" as="offset" />
          </mxGeometry>
        </mxCell>
        <mxCell id="NPe-8h-_CcpF1HoH4NOW-147" style="edgeStyle=orthogonalEdgeStyle;rounded=0;orthogonalLoop=1;jettySize=auto;html=1;entryX=1;entryY=0.5;entryDx=0;entryDy=0;exitX=0.5;exitY=1;exitDx=0;exitDy=0;exitPerimeter=0;entryPerimeter=0;" parent="1" source="NPe-8h-_CcpF1HoH4NOW-167" target="NPe-8h-_CcpF1HoH4NOW-168" edge="1">
          <mxGeometry relative="1" as="geometry">
            <mxPoint x="570" y="748" as="targetPoint" />
            <mxPoint x="938" y="668.5" as="sourcePoint" />
            <Array as="points">
              <mxPoint x="940" y="748.5" />
            </Array>
          </mxGeometry>
        </mxCell>
        <mxCell id="NPe-8h-_CcpF1HoH4NOW-148" value="내보내기" style="edgeLabel;html=1;align=center;verticalAlign=middle;resizable=0;points=[];" parent="NPe-8h-_CcpF1HoH4NOW-147" vertex="1" connectable="0">
          <mxGeometry x="0.0006" y="1" relative="1" as="geometry">
            <mxPoint x="-34" y="-1" as="offset" />
          </mxGeometry>
        </mxCell>
        <mxCell id="NPe-8h-_CcpF1HoH4NOW-151" value="- 상품 코드 생성" style="text;html=1;strokeColor=none;fillColor=none;align=left;verticalAlign=middle;whiteSpace=wrap;rounded=0;" parent="1" vertex="1">
          <mxGeometry x="950" y="678.5" width="110" height="30" as="geometry" />
        </mxCell>
        <mxCell id="NPe-8h-_CcpF1HoH4NOW-155" style="edgeStyle=orthogonalEdgeStyle;rounded=0;orthogonalLoop=1;jettySize=auto;html=1;exitX=0.5;exitY=1;exitDx=0;exitDy=0;exitPerimeter=0;" parent="1" edge="1">
          <mxGeometry relative="1" as="geometry">
            <mxPoint x="938" y="661.75" as="sourcePoint" />
            <mxPoint x="938" y="661.75" as="targetPoint" />
          </mxGeometry>
        </mxCell>
        <mxCell id="NPe-8h-_CcpF1HoH4NOW-156" value="- 상품명&lt;br style=&quot;border-color: var(--border-color);&quot;&gt;- 제조사&lt;br style=&quot;border-color: var(--border-color);&quot;&gt;- 판매가&lt;br style=&quot;border-color: var(--border-color);&quot;&gt;- 원가&lt;br style=&quot;border-color: var(--border-color);&quot;&gt;- 할인율&lt;br style=&quot;border-color: var(--border-color);&quot;&gt;- 상품 구분&lt;br style=&quot;border-color: var(--border-color);&quot;&gt;- 카테고리 코드&lt;br style=&quot;border-color: var(--border-color);&quot;&gt;- 상품 설명&lt;br style=&quot;border-color: var(--border-color);&quot;&gt;- 상품 사진" style="rounded=1;whiteSpace=wrap;html=1;absoluteArcSize=1;arcSize=14;strokeWidth=2;align=left;strokeColor=#009900;" parent="1" vertex="1">
          <mxGeometry x="660" y="548" width="110" height="150" as="geometry" />
        </mxCell>
        <mxCell id="NPe-8h-_CcpF1HoH4NOW-161" value="- 상품명 동일 조회" style="rounded=1;whiteSpace=wrap;html=1;absoluteArcSize=1;arcSize=14;strokeWidth=2;align=left;strokeColor=#009900;" parent="1" vertex="1">
          <mxGeometry x="455" y="358.5" width="110" height="60" as="geometry" />
        </mxCell>
        <mxCell id="NPe-8h-_CcpF1HoH4NOW-165" value="상품 DB" style="strokeWidth=2;html=1;shape=mxgraph.flowchart.database;whiteSpace=wrap;" parent="1" vertex="1">
          <mxGeometry x="665" y="353.5" width="100" height="70" as="geometry" />
        </mxCell>
        <mxCell id="NPe-8h-_CcpF1HoH4NOW-166" value="동일 상품 확인" style="strokeWidth=2;html=1;shape=mxgraph.flowchart.decision;whiteSpace=wrap;" parent="1" vertex="1">
          <mxGeometry x="655" y="448.5" width="120" height="60.75" as="geometry" />
        </mxCell>
        <mxCell id="NPe-8h-_CcpF1HoH4NOW-167" value="상품 DB" style="strokeWidth=2;html=1;shape=mxgraph.flowchart.database;whiteSpace=wrap;" parent="1" vertex="1">
          <mxGeometry x="890" y="594.5" width="100" height="70" as="geometry" />
        </mxCell>
        <mxCell id="NPe-8h-_CcpF1HoH4NOW-168" value="상품 리스트" style="strokeWidth=2;html=1;shape=mxgraph.flowchart.display;whiteSpace=wrap;strokeColor=#FFD966;" parent="1" vertex="1">
          <mxGeometry x="461" y="718.5" width="100" height="60" as="geometry" />
        </mxCell>
        <mxCell id="NPe-8h-_CcpF1HoH4NOW-171" value="" style="edgeStyle=orthogonalEdgeStyle;rounded=0;orthogonalLoop=1;jettySize=auto;html=1;" parent="1" source="NPe-8h-_CcpF1HoH4NOW-169" target="NPe-8h-_CcpF1HoH4NOW-170" edge="1">
          <mxGeometry relative="1" as="geometry" />
        </mxCell>
        <mxCell id="NPe-8h-_CcpF1HoH4NOW-169" value="카테고리 관리" style="strokeWidth=2;html=1;shape=mxgraph.flowchart.start_1;whiteSpace=wrap;strokeColor=#FF0000;" parent="1" vertex="1">
          <mxGeometry x="-310" y="145.25" width="100" height="60" as="geometry" />
        </mxCell>
        <mxCell id="NPe-8h-_CcpF1HoH4NOW-177" value="" style="edgeStyle=orthogonalEdgeStyle;rounded=0;orthogonalLoop=1;jettySize=auto;html=1;" parent="1" source="NPe-8h-_CcpF1HoH4NOW-170" target="NPe-8h-_CcpF1HoH4NOW-173" edge="1">
          <mxGeometry relative="1" as="geometry" />
        </mxCell>
        <mxCell id="NPe-8h-_CcpF1HoH4NOW-170" value="카테고리 리스트" style="strokeWidth=2;html=1;shape=mxgraph.flowchart.display;whiteSpace=wrap;strokeColor=#FFD966;" parent="1" vertex="1">
          <mxGeometry x="-310" y="245.25" width="100" height="60" as="geometry" />
        </mxCell>
        <mxCell id="NPe-8h-_CcpF1HoH4NOW-185" value="" style="edgeStyle=orthogonalEdgeStyle;rounded=0;orthogonalLoop=1;jettySize=auto;html=1;" parent="1" source="NPe-8h-_CcpF1HoH4NOW-172" target="NPe-8h-_CcpF1HoH4NOW-184" edge="1">
          <mxGeometry relative="1" as="geometry" />
        </mxCell>
        <mxCell id="NPe-8h-_CcpF1HoH4NOW-172" value="카테고리 수정" style="rounded=1;whiteSpace=wrap;html=1;absoluteArcSize=1;arcSize=14;strokeWidth=2;align=center;strokeColor=#009900;" parent="1" vertex="1">
          <mxGeometry x="-490" y="245.25" width="110" height="60" as="geometry" />
        </mxCell>
        <mxCell id="NPe-8h-_CcpF1HoH4NOW-176" value="" style="edgeStyle=orthogonalEdgeStyle;rounded=0;orthogonalLoop=1;jettySize=auto;html=1;" parent="1" source="NPe-8h-_CcpF1HoH4NOW-173" target="NPe-8h-_CcpF1HoH4NOW-139" edge="1">
          <mxGeometry relative="1" as="geometry" />
        </mxCell>
        <mxCell id="NPe-8h-_CcpF1HoH4NOW-173" value="카테고리 추가" style="rounded=1;whiteSpace=wrap;html=1;absoluteArcSize=1;arcSize=14;strokeWidth=2;align=center;strokeColor=#009900;" parent="1" vertex="1">
          <mxGeometry x="-140" y="245.25" width="110" height="60" as="geometry" />
        </mxCell>
        <mxCell id="NPe-8h-_CcpF1HoH4NOW-178" style="edgeStyle=orthogonalEdgeStyle;rounded=0;orthogonalLoop=1;jettySize=auto;html=1;exitX=1;exitY=0.5;exitDx=0;exitDy=0;exitPerimeter=0;entryX=1;entryY=0.5;entryDx=0;entryDy=0;" parent="1" source="NPe-8h-_CcpF1HoH4NOW-174" target="NPe-8h-_CcpF1HoH4NOW-173" edge="1">
          <mxGeometry relative="1" as="geometry">
            <Array as="points">
              <mxPoint x="30" y="500" />
              <mxPoint x="30" y="275" />
            </Array>
          </mxGeometry>
        </mxCell>
        <mxCell id="NPe-8h-_CcpF1HoH4NOW-179" value="YES" style="edgeLabel;html=1;align=center;verticalAlign=middle;resizable=0;points=[];" parent="NPe-8h-_CcpF1HoH4NOW-178" vertex="1" connectable="0">
          <mxGeometry x="-0.3281" y="1" relative="1" as="geometry">
            <mxPoint as="offset" />
          </mxGeometry>
        </mxCell>
        <mxCell id="NPe-8h-_CcpF1HoH4NOW-181" value="" style="edgeStyle=orthogonalEdgeStyle;rounded=0;orthogonalLoop=1;jettySize=auto;html=1;exitX=0;exitY=0.5;exitDx=0;exitDy=0;exitPerimeter=0;entryX=1;entryY=0.5;entryDx=0;entryDy=0;entryPerimeter=0;" parent="1" source="NPe-8h-_CcpF1HoH4NOW-174" edge="1" target="NPe-8h-_CcpF1HoH4NOW-195">
          <mxGeometry relative="1" as="geometry">
            <mxPoint x="100.05882352941171" y="455.25" as="targetPoint" />
          </mxGeometry>
        </mxCell>
        <mxCell id="NPe-8h-_CcpF1HoH4NOW-182" value="NO" style="edgeLabel;html=1;align=center;verticalAlign=middle;resizable=0;points=[];" parent="NPe-8h-_CcpF1HoH4NOW-181" vertex="1" connectable="0">
          <mxGeometry x="-0.1065" y="-2" relative="1" as="geometry">
            <mxPoint x="2" as="offset" />
          </mxGeometry>
        </mxCell>
        <mxCell id="NPe-8h-_CcpF1HoH4NOW-250" value="" style="edgeStyle=orthogonalEdgeStyle;rounded=0;orthogonalLoop=1;jettySize=auto;html=1;exitX=0.5;exitY=1;exitDx=0;exitDy=0;exitPerimeter=0;entryX=0.5;entryY=0;entryDx=0;entryDy=0;entryPerimeter=0;startArrow=classic;startFill=1;" parent="1" source="NPe-8h-_CcpF1HoH4NOW-174" target="NPe-8h-_CcpF1HoH4NOW-249" edge="1">
          <mxGeometry relative="1" as="geometry">
            <mxPoint x="-85" y="550.75" as="sourcePoint" />
            <mxPoint x="150" y="509.25" as="targetPoint" />
            <Array as="points">
              <mxPoint x="-85" y="588" />
              <mxPoint x="-85" y="588" />
            </Array>
          </mxGeometry>
        </mxCell>
        <mxCell id="NPe-8h-_CcpF1HoH4NOW-251" value="조회" style="edgeLabel;html=1;align=center;verticalAlign=middle;resizable=0;points=[];" parent="NPe-8h-_CcpF1HoH4NOW-250" vertex="1" connectable="0">
          <mxGeometry x="-0.0682" y="2" relative="1" as="geometry">
            <mxPoint y="2" as="offset" />
          </mxGeometry>
        </mxCell>
        <mxCell id="NPe-8h-_CcpF1HoH4NOW-174" value="동일 카테고리 확인" style="strokeWidth=2;html=1;shape=mxgraph.flowchart.decision;whiteSpace=wrap;" parent="1" vertex="1">
          <mxGeometry x="-145" y="469.25" width="120" height="60.75" as="geometry" />
        </mxCell>
        <mxCell id="NPe-8h-_CcpF1HoH4NOW-187" value="" style="edgeStyle=orthogonalEdgeStyle;rounded=0;orthogonalLoop=1;jettySize=auto;html=1;entryX=0;entryY=0.5;entryDx=0;entryDy=0;entryPerimeter=0;exitX=0.5;exitY=1;exitDx=0;exitDy=0;" parent="1" source="NPe-8h-_CcpF1HoH4NOW-184" edge="1" target="NPe-8h-_CcpF1HoH4NOW-195">
          <mxGeometry relative="1" as="geometry">
            <mxPoint x="-640" y="455.25" as="targetPoint" />
          </mxGeometry>
        </mxCell>
        <mxCell id="NPe-8h-_CcpF1HoH4NOW-188" value="저장" style="edgeLabel;html=1;align=center;verticalAlign=middle;resizable=0;points=[];" parent="NPe-8h-_CcpF1HoH4NOW-187" vertex="1" connectable="0">
          <mxGeometry x="-0.1143" y="-1" relative="1" as="geometry">
            <mxPoint x="-7" y="-52" as="offset" />
          </mxGeometry>
        </mxCell>
        <mxCell id="NPe-8h-_CcpF1HoH4NOW-184" value="수정 사항 입력" style="shape=parallelogram;html=1;strokeWidth=2;perimeter=parallelogramPerimeter;whiteSpace=wrap;rounded=1;arcSize=12;size=0.23;strokeColor=#009900;" parent="1" vertex="1">
          <mxGeometry x="-515" y="353.5" width="160" height="60" as="geometry" />
        </mxCell>
        <mxCell id="NPe-8h-_CcpF1HoH4NOW-193" value="" style="edgeStyle=orthogonalEdgeStyle;rounded=0;orthogonalLoop=1;jettySize=auto;html=1;" parent="1" source="NPe-8h-_CcpF1HoH4NOW-191" target="NPe-8h-_CcpF1HoH4NOW-192" edge="1">
          <mxGeometry relative="1" as="geometry" />
        </mxCell>
        <mxCell id="NPe-8h-_CcpF1HoH4NOW-191" value="찜하기" style="strokeWidth=2;html=1;shape=mxgraph.flowchart.start_1;whiteSpace=wrap;strokeColor=#FF0000;" parent="1" vertex="1">
          <mxGeometry x="1535" y="68.5" width="100" height="60" as="geometry" />
        </mxCell>
        <mxCell id="NPe-8h-_CcpF1HoH4NOW-207" value="" style="edgeStyle=orthogonalEdgeStyle;rounded=0;orthogonalLoop=1;jettySize=auto;html=1;" parent="1" source="NPe-8h-_CcpF1HoH4NOW-192" target="NPe-8h-_CcpF1HoH4NOW-196" edge="1">
          <mxGeometry relative="1" as="geometry" />
        </mxCell>
        <mxCell id="NPe-8h-_CcpF1HoH4NOW-192" value="찜 누르기" style="shape=parallelogram;html=1;strokeWidth=2;perimeter=parallelogramPerimeter;whiteSpace=wrap;rounded=1;arcSize=12;size=0.23;strokeColor=#009900;" parent="1" vertex="1">
          <mxGeometry x="1505" y="178.5" width="160" height="60" as="geometry" />
        </mxCell>
        <mxCell id="nD0UYpK1AcCFRPNusd-Y-33" value="" style="edgeStyle=orthogonalEdgeStyle;rounded=0;orthogonalLoop=1;jettySize=auto;html=1;entryX=0.5;entryY=1;entryDx=0;entryDy=0;entryPerimeter=0;" edge="1" parent="1" source="NPe-8h-_CcpF1HoH4NOW-195" target="NPe-8h-_CcpF1HoH4NOW-170">
          <mxGeometry relative="1" as="geometry" />
        </mxCell>
        <mxCell id="nD0UYpK1AcCFRPNusd-Y-34" value="내보내기" style="edgeLabel;html=1;align=center;verticalAlign=middle;resizable=0;points=[];" vertex="1" connectable="0" parent="nD0UYpK1AcCFRPNusd-Y-33">
          <mxGeometry x="-0.1514" y="1" relative="1" as="geometry">
            <mxPoint as="offset" />
          </mxGeometry>
        </mxCell>
        <mxCell id="NPe-8h-_CcpF1HoH4NOW-195" value="상품 카테고리&amp;nbsp;DB" style="strokeWidth=2;html=1;shape=mxgraph.flowchart.database;whiteSpace=wrap;" parent="1" vertex="1">
          <mxGeometry x="-310" y="464.62" width="100" height="70" as="geometry" />
        </mxCell>
        <mxCell id="NPe-8h-_CcpF1HoH4NOW-198" value="" style="edgeStyle=orthogonalEdgeStyle;rounded=0;orthogonalLoop=1;jettySize=auto;html=1;" parent="1" source="NPe-8h-_CcpF1HoH4NOW-196" target="NPe-8h-_CcpF1HoH4NOW-197" edge="1">
          <mxGeometry relative="1" as="geometry" />
        </mxCell>
        <mxCell id="NPe-8h-_CcpF1HoH4NOW-199" value="삭제" style="edgeLabel;html=1;align=center;verticalAlign=middle;resizable=0;points=[];" parent="NPe-8h-_CcpF1HoH4NOW-198" vertex="1" connectable="0">
          <mxGeometry x="0.0097" y="-4" relative="1" as="geometry">
            <mxPoint y="-3" as="offset" />
          </mxGeometry>
        </mxCell>
        <mxCell id="NPe-8h-_CcpF1HoH4NOW-201" value="" style="edgeStyle=orthogonalEdgeStyle;rounded=0;orthogonalLoop=1;jettySize=auto;html=1;" parent="1" source="NPe-8h-_CcpF1HoH4NOW-196" target="NPe-8h-_CcpF1HoH4NOW-200" edge="1">
          <mxGeometry relative="1" as="geometry" />
        </mxCell>
        <mxCell id="NPe-8h-_CcpF1HoH4NOW-202" value="등록" style="edgeLabel;html=1;align=center;verticalAlign=middle;resizable=0;points=[];" parent="NPe-8h-_CcpF1HoH4NOW-201" vertex="1" connectable="0">
          <mxGeometry x="-0.0668" y="-1" relative="1" as="geometry">
            <mxPoint x="-1" y="2" as="offset" />
          </mxGeometry>
        </mxCell>
        <mxCell id="NPe-8h-_CcpF1HoH4NOW-215" value="" style="edgeStyle=orthogonalEdgeStyle;rounded=0;orthogonalLoop=1;jettySize=auto;html=1;" parent="1" source="NPe-8h-_CcpF1HoH4NOW-196" target="NPe-8h-_CcpF1HoH4NOW-214" edge="1">
          <mxGeometry relative="1" as="geometry" />
        </mxCell>
        <mxCell id="NPe-8h-_CcpF1HoH4NOW-196" value="찜 / 삭제" style="strokeWidth=2;html=1;shape=mxgraph.flowchart.decision;whiteSpace=wrap;" parent="1" vertex="1">
          <mxGeometry x="1525" y="297.75" width="120" height="60.75" as="geometry" />
        </mxCell>
        <mxCell id="NPe-8h-_CcpF1HoH4NOW-197" value="찜 이력 삭제 진행" style="rounded=1;whiteSpace=wrap;html=1;absoluteArcSize=1;arcSize=14;strokeWidth=2;align=center;strokeColor=#009900;" parent="1" vertex="1">
          <mxGeometry x="1705" y="298.5" width="110" height="60" as="geometry" />
        </mxCell>
        <mxCell id="NPe-8h-_CcpF1HoH4NOW-200" value="찜 이력 등록" style="rounded=1;whiteSpace=wrap;html=1;absoluteArcSize=1;arcSize=14;strokeWidth=2;align=center;strokeColor=#009900;" parent="1" vertex="1">
          <mxGeometry x="1355" y="299.75" width="110" height="60" as="geometry" />
        </mxCell>
        <mxCell id="NPe-8h-_CcpF1HoH4NOW-203" style="edgeStyle=orthogonalEdgeStyle;rounded=0;orthogonalLoop=1;jettySize=auto;html=1;exitX=0.5;exitY=1;exitDx=0;exitDy=0;entryX=0.5;entryY=0;entryDx=0;entryDy=0;entryPerimeter=0;" parent="1" source="NPe-8h-_CcpF1HoH4NOW-200" target="NPe-8h-_CcpF1HoH4NOW-211" edge="1">
          <mxGeometry relative="1" as="geometry">
            <mxPoint x="1705" y="484.25" as="targetPoint" />
          </mxGeometry>
        </mxCell>
        <mxCell id="NPe-8h-_CcpF1HoH4NOW-205" value="저장" style="edgeLabel;html=1;align=center;verticalAlign=middle;resizable=0;points=[];" parent="NPe-8h-_CcpF1HoH4NOW-203" vertex="1" connectable="0">
          <mxGeometry x="0.373" y="-2" relative="1" as="geometry">
            <mxPoint x="2" y="-47" as="offset" />
          </mxGeometry>
        </mxCell>
        <mxCell id="NPe-8h-_CcpF1HoH4NOW-209" value="" style="edgeStyle=orthogonalEdgeStyle;rounded=0;orthogonalLoop=1;jettySize=auto;html=1;entryX=0.5;entryY=0;entryDx=0;entryDy=0;entryPerimeter=0;" parent="1" source="NPe-8h-_CcpF1HoH4NOW-197" target="NPe-8h-_CcpF1HoH4NOW-208" edge="1">
          <mxGeometry relative="1" as="geometry">
            <mxPoint x="1755" y="358.75" as="sourcePoint" />
            <mxPoint x="1805" y="484.25" as="targetPoint" />
            <Array as="points" />
          </mxGeometry>
        </mxCell>
        <mxCell id="NPe-8h-_CcpF1HoH4NOW-212" value="저장" style="edgeLabel;html=1;align=center;verticalAlign=middle;resizable=0;points=[];" parent="NPe-8h-_CcpF1HoH4NOW-209" vertex="1" connectable="0">
          <mxGeometry x="-0.1807" y="3" relative="1" as="geometry">
            <mxPoint x="-4" y="5" as="offset" />
          </mxGeometry>
        </mxCell>
        <mxCell id="NPe-8h-_CcpF1HoH4NOW-217" value="" style="edgeStyle=orthogonalEdgeStyle;rounded=0;orthogonalLoop=1;jettySize=auto;html=1;" parent="1" source="NPe-8h-_CcpF1HoH4NOW-208" target="NPe-8h-_CcpF1HoH4NOW-214" edge="1">
          <mxGeometry relative="1" as="geometry" />
        </mxCell>
        <mxCell id="NPe-8h-_CcpF1HoH4NOW-208" value="찜 관리 DB" style="strokeWidth=2;html=1;shape=mxgraph.flowchart.database;whiteSpace=wrap;" parent="1" vertex="1">
          <mxGeometry x="1710" y="530" width="100" height="70" as="geometry" />
        </mxCell>
        <mxCell id="NPe-8h-_CcpF1HoH4NOW-216" value="" style="edgeStyle=orthogonalEdgeStyle;rounded=0;orthogonalLoop=1;jettySize=auto;html=1;" parent="1" source="NPe-8h-_CcpF1HoH4NOW-211" target="NPe-8h-_CcpF1HoH4NOW-214" edge="1">
          <mxGeometry relative="1" as="geometry" />
        </mxCell>
        <mxCell id="NPe-8h-_CcpF1HoH4NOW-211" value="찜 관리 DB" style="strokeWidth=2;html=1;shape=mxgraph.flowchart.database;whiteSpace=wrap;" parent="1" vertex="1">
          <mxGeometry x="1360" y="530" width="100" height="70" as="geometry" />
        </mxCell>
        <mxCell id="NPe-8h-_CcpF1HoH4NOW-219" value="" style="edgeStyle=orthogonalEdgeStyle;rounded=0;orthogonalLoop=1;jettySize=auto;html=1;" parent="1" source="NPe-8h-_CcpF1HoH4NOW-214" target="NPe-8h-_CcpF1HoH4NOW-218" edge="1">
          <mxGeometry relative="1" as="geometry" />
        </mxCell>
        <mxCell id="NPe-8h-_CcpF1HoH4NOW-220" value="수정" style="edgeLabel;html=1;align=center;verticalAlign=middle;resizable=0;points=[];" parent="NPe-8h-_CcpF1HoH4NOW-219" vertex="1" connectable="0">
          <mxGeometry x="-0.143" relative="1" as="geometry">
            <mxPoint as="offset" />
          </mxGeometry>
        </mxCell>
        <mxCell id="NPe-8h-_CcpF1HoH4NOW-214" value="상품 테이블&lt;br&gt;찜하기 수 수정" style="rounded=1;whiteSpace=wrap;html=1;strokeWidth=2;strokeColor=#009900;" parent="1" vertex="1">
          <mxGeometry x="1525" y="535.005" width="120" height="60" as="geometry" />
        </mxCell>
        <mxCell id="NPe-8h-_CcpF1HoH4NOW-218" value="상품 DB" style="strokeWidth=2;html=1;shape=mxgraph.flowchart.database;whiteSpace=wrap;" parent="1" vertex="1">
          <mxGeometry x="1535" y="650" width="100" height="70" as="geometry" />
        </mxCell>
        <mxCell id="NPe-8h-_CcpF1HoH4NOW-229" style="edgeStyle=orthogonalEdgeStyle;rounded=0;orthogonalLoop=1;jettySize=auto;html=1;exitX=0.5;exitY=1;exitDx=0;exitDy=0;exitPerimeter=0;" parent="1" source="NPe-8h-_CcpF1HoH4NOW-221" target="NPe-8h-_CcpF1HoH4NOW-226" edge="1">
          <mxGeometry relative="1" as="geometry">
            <mxPoint x="1380" y="-620" as="sourcePoint" />
            <Array as="points">
              <mxPoint x="1430" y="-590" />
              <mxPoint x="1080" y="-590" />
            </Array>
          </mxGeometry>
        </mxCell>
        <mxCell id="NPe-8h-_CcpF1HoH4NOW-231" style="edgeStyle=orthogonalEdgeStyle;rounded=0;orthogonalLoop=1;jettySize=auto;html=1;exitX=0.5;exitY=1;exitDx=0;exitDy=0;exitPerimeter=0;" parent="1" source="NPe-8h-_CcpF1HoH4NOW-221" target="NPe-8h-_CcpF1HoH4NOW-223" edge="1">
          <mxGeometry relative="1" as="geometry">
            <mxPoint x="1380" y="-620" as="sourcePoint" />
            <Array as="points">
              <mxPoint x="1430" y="-590" />
              <mxPoint x="1360" y="-590" />
            </Array>
          </mxGeometry>
        </mxCell>
        <mxCell id="NPe-8h-_CcpF1HoH4NOW-232" style="edgeStyle=orthogonalEdgeStyle;rounded=0;orthogonalLoop=1;jettySize=auto;html=1;exitX=0.5;exitY=1;exitDx=0;exitDy=0;exitPerimeter=0;" parent="1" source="NPe-8h-_CcpF1HoH4NOW-221" target="NPe-8h-_CcpF1HoH4NOW-224" edge="1">
          <mxGeometry relative="1" as="geometry">
            <mxPoint x="1380" y="-620" as="sourcePoint" />
            <Array as="points">
              <mxPoint x="1430" y="-590" />
              <mxPoint x="1500" y="-590" />
            </Array>
          </mxGeometry>
        </mxCell>
        <mxCell id="NPe-8h-_CcpF1HoH4NOW-233" style="edgeStyle=orthogonalEdgeStyle;rounded=0;orthogonalLoop=1;jettySize=auto;html=1;exitX=0.5;exitY=1;exitDx=0;exitDy=0;exitPerimeter=0;" parent="1" source="NPe-8h-_CcpF1HoH4NOW-221" target="NPe-8h-_CcpF1HoH4NOW-225" edge="1">
          <mxGeometry relative="1" as="geometry">
            <mxPoint x="1380" y="-620" as="sourcePoint" />
            <Array as="points">
              <mxPoint x="1430" y="-590" />
              <mxPoint x="1640" y="-590" />
            </Array>
          </mxGeometry>
        </mxCell>
        <mxCell id="NPe-8h-_CcpF1HoH4NOW-234" style="edgeStyle=orthogonalEdgeStyle;rounded=0;orthogonalLoop=1;jettySize=auto;html=1;" parent="1" target="NPe-8h-_CcpF1HoH4NOW-227" edge="1">
          <mxGeometry relative="1" as="geometry">
            <mxPoint x="1430" y="-620" as="sourcePoint" />
            <Array as="points">
              <mxPoint x="1432" y="-620" />
              <mxPoint x="1430" y="-620" />
              <mxPoint x="1430" y="-590" />
              <mxPoint x="1780" y="-590" />
            </Array>
          </mxGeometry>
        </mxCell>
        <mxCell id="NPe-8h-_CcpF1HoH4NOW-221" value="상품 목록" style="strokeWidth=2;html=1;shape=mxgraph.flowchart.start_1;whiteSpace=wrap;strokeColor=#FF0000;" parent="1" vertex="1">
          <mxGeometry x="1380" y="-680" width="100" height="60" as="geometry" />
        </mxCell>
        <mxCell id="NPe-8h-_CcpF1HoH4NOW-237" style="edgeStyle=orthogonalEdgeStyle;rounded=0;orthogonalLoop=1;jettySize=auto;html=1;" parent="1" source="NPe-8h-_CcpF1HoH4NOW-222" target="NPe-8h-_CcpF1HoH4NOW-228" edge="1">
          <mxGeometry relative="1" as="geometry">
            <mxPoint x="1380" y="-436.25" as="targetPoint" />
            <Array as="points">
              <mxPoint x="1230" y="-470" />
              <mxPoint x="1440" y="-470" />
            </Array>
          </mxGeometry>
        </mxCell>
        <mxCell id="NPe-8h-_CcpF1HoH4NOW-222" value="할인 상품" style="strokeWidth=2;html=1;shape=mxgraph.flowchart.display;whiteSpace=wrap;strokeColor=#FFD966;" parent="1" vertex="1">
          <mxGeometry x="1170" y="-560" width="100" height="60" as="geometry" />
        </mxCell>
        <mxCell id="NPe-8h-_CcpF1HoH4NOW-223" value="베스트 상품" style="strokeWidth=2;html=1;shape=mxgraph.flowchart.display;whiteSpace=wrap;strokeColor=#FFD966;" parent="1" vertex="1">
          <mxGeometry x="1310" y="-560" width="100" height="60" as="geometry" />
        </mxCell>
        <mxCell id="NPe-8h-_CcpF1HoH4NOW-224" value="예약 상품" style="strokeWidth=2;html=1;shape=mxgraph.flowchart.display;whiteSpace=wrap;strokeColor=#FFD966;" parent="1" vertex="1">
          <mxGeometry x="1450" y="-560" width="100" height="60" as="geometry" />
        </mxCell>
        <mxCell id="NPe-8h-_CcpF1HoH4NOW-240" style="edgeStyle=orthogonalEdgeStyle;rounded=0;orthogonalLoop=1;jettySize=auto;html=1;exitX=0.5;exitY=1;exitDx=0;exitDy=0;exitPerimeter=0;entryX=0.5;entryY=0;entryDx=0;entryDy=0;entryPerimeter=0;" parent="1" source="NPe-8h-_CcpF1HoH4NOW-225" target="NPe-8h-_CcpF1HoH4NOW-228" edge="1">
          <mxGeometry relative="1" as="geometry">
            <mxPoint x="1380" y="-436.25" as="targetPoint" />
            <Array as="points">
              <mxPoint x="1630" y="-500" />
              <mxPoint x="1630" y="-470" />
              <mxPoint x="1440" y="-470" />
            </Array>
          </mxGeometry>
        </mxCell>
        <mxCell id="NPe-8h-_CcpF1HoH4NOW-225" value="추천 상품" style="strokeWidth=2;html=1;shape=mxgraph.flowchart.display;whiteSpace=wrap;strokeColor=#FFD966;" parent="1" vertex="1">
          <mxGeometry x="1590" y="-560" width="100" height="60" as="geometry" />
        </mxCell>
        <mxCell id="NPe-8h-_CcpF1HoH4NOW-235" style="edgeStyle=orthogonalEdgeStyle;rounded=0;orthogonalLoop=1;jettySize=auto;html=1;exitX=0.5;exitY=1;exitDx=0;exitDy=0;exitPerimeter=0;entryX=0.5;entryY=0;entryDx=0;entryDy=0;entryPerimeter=0;" parent="1" source="NPe-8h-_CcpF1HoH4NOW-226" target="NPe-8h-_CcpF1HoH4NOW-228" edge="1">
          <mxGeometry relative="1" as="geometry">
            <mxPoint x="1380" y="-436.25" as="targetPoint" />
            <Array as="points">
              <mxPoint x="1080" y="-470" />
              <mxPoint x="1440" y="-470" />
              <mxPoint x="1440" y="-436" />
            </Array>
          </mxGeometry>
        </mxCell>
        <mxCell id="NPe-8h-_CcpF1HoH4NOW-226" value="신상품" style="strokeWidth=2;html=1;shape=mxgraph.flowchart.display;whiteSpace=wrap;strokeColor=#FFD966;" parent="1" vertex="1">
          <mxGeometry x="1030" y="-560" width="100" height="60" as="geometry" />
        </mxCell>
        <mxCell id="NPe-8h-_CcpF1HoH4NOW-241" style="edgeStyle=orthogonalEdgeStyle;rounded=0;orthogonalLoop=1;jettySize=auto;html=1;exitX=0.5;exitY=1;exitDx=0;exitDy=0;exitPerimeter=0;entryX=0.5;entryY=0;entryDx=0;entryDy=0;entryPerimeter=0;" parent="1" source="NPe-8h-_CcpF1HoH4NOW-227" target="NPe-8h-_CcpF1HoH4NOW-228" edge="1">
          <mxGeometry relative="1" as="geometry">
            <mxPoint x="1440" y="-430" as="targetPoint" />
            <Array as="points">
              <mxPoint x="1790" y="-500" />
              <mxPoint x="1790" y="-470" />
              <mxPoint x="1440" y="-470" />
            </Array>
          </mxGeometry>
        </mxCell>
        <mxCell id="NPe-8h-_CcpF1HoH4NOW-227" value="카테고리별" style="strokeWidth=2;html=1;shape=mxgraph.flowchart.display;whiteSpace=wrap;strokeColor=#FFD966;" parent="1" vertex="1">
          <mxGeometry x="1730" y="-560" width="100" height="60" as="geometry" />
        </mxCell>
        <mxCell id="NPe-8h-_CcpF1HoH4NOW-243" value="" style="edgeStyle=orthogonalEdgeStyle;rounded=0;orthogonalLoop=1;jettySize=auto;html=1;" parent="1" source="NPe-8h-_CcpF1HoH4NOW-228" target="NPe-8h-_CcpF1HoH4NOW-242" edge="1">
          <mxGeometry relative="1" as="geometry" />
        </mxCell>
        <mxCell id="NPe-8h-_CcpF1HoH4NOW-228" value="제품 상세 페이지" style="strokeWidth=2;html=1;shape=mxgraph.flowchart.display;whiteSpace=wrap;strokeColor=#FFD966;" parent="1" vertex="1">
          <mxGeometry x="1390" y="-436.25" width="100" height="60" as="geometry" />
        </mxCell>
        <mxCell id="NPe-8h-_CcpF1HoH4NOW-230" style="edgeStyle=orthogonalEdgeStyle;rounded=0;orthogonalLoop=1;jettySize=auto;html=1;entryX=0.558;entryY=0.006;entryDx=0;entryDy=0;entryPerimeter=0;" parent="1" target="NPe-8h-_CcpF1HoH4NOW-222" edge="1">
          <mxGeometry relative="1" as="geometry">
            <mxPoint x="1430" y="-620" as="sourcePoint" />
            <Array as="points">
              <mxPoint x="1430" y="-620" />
              <mxPoint x="1430" y="-590" />
              <mxPoint x="1226" y="-590" />
            </Array>
          </mxGeometry>
        </mxCell>
        <mxCell id="NPe-8h-_CcpF1HoH4NOW-238" style="edgeStyle=orthogonalEdgeStyle;rounded=0;orthogonalLoop=1;jettySize=auto;html=1;exitX=0.5;exitY=1;exitDx=0;exitDy=0;exitPerimeter=0;" parent="1" source="NPe-8h-_CcpF1HoH4NOW-223" edge="1">
          <mxGeometry relative="1" as="geometry">
            <mxPoint x="1440" y="-436" as="targetPoint" />
            <Array as="points">
              <mxPoint x="1360" y="-470" />
              <mxPoint x="1440" y="-470" />
            </Array>
          </mxGeometry>
        </mxCell>
        <mxCell id="NPe-8h-_CcpF1HoH4NOW-239" style="edgeStyle=orthogonalEdgeStyle;rounded=0;orthogonalLoop=1;jettySize=auto;html=1;" parent="1" source="NPe-8h-_CcpF1HoH4NOW-224" target="NPe-8h-_CcpF1HoH4NOW-228" edge="1">
          <mxGeometry relative="1" as="geometry">
            <mxPoint x="1380" y="-436.25" as="targetPoint" />
            <Array as="points">
              <mxPoint x="1500" y="-470" />
              <mxPoint x="1440" y="-470" />
            </Array>
          </mxGeometry>
        </mxCell>
        <mxCell id="NPe-8h-_CcpF1HoH4NOW-242" value="상품 정보&lt;br&gt;- 상품명&lt;br&gt;- 제조사&lt;br&gt;- 등록일&lt;br&gt;- 판매가&lt;br&gt;- 상품 설명&lt;br&gt;- 상품 사진&lt;br&gt;- 찜수&lt;br&gt;&lt;br&gt;연관 상품&lt;br&gt;&lt;br&gt;리뷰 / 평점 등록&lt;br&gt;상품 문의&lt;br&gt;찜/SNS 공유" style="rounded=1;whiteSpace=wrap;html=1;absoluteArcSize=1;arcSize=14;strokeWidth=2;align=left;strokeColor=#009900;" parent="1" vertex="1">
          <mxGeometry x="1355" y="-340" width="170" height="220" as="geometry" />
        </mxCell>
        <mxCell id="NPe-8h-_CcpF1HoH4NOW-244" value="장바구니" style="strokeWidth=2;html=1;shape=mxgraph.flowchart.start_1;whiteSpace=wrap;strokeColor=#FF0000;" parent="1" vertex="1">
          <mxGeometry x="1630" y="-340" width="100" height="60" as="geometry" />
        </mxCell>
        <mxCell id="NPe-8h-_CcpF1HoH4NOW-245" value="결제" style="strokeWidth=2;html=1;shape=mxgraph.flowchart.start_1;whiteSpace=wrap;strokeColor=#FF0000;" parent="1" vertex="1">
          <mxGeometry x="1630" y="-260" width="100" height="60" as="geometry" />
        </mxCell>
        <mxCell id="NPe-8h-_CcpF1HoH4NOW-246" style="edgeStyle=orthogonalEdgeStyle;rounded=0;orthogonalLoop=1;jettySize=auto;html=1;entryX=0;entryY=0.5;entryDx=0;entryDy=0;entryPerimeter=0;" parent="1" source="NPe-8h-_CcpF1HoH4NOW-242" target="NPe-8h-_CcpF1HoH4NOW-244" edge="1">
          <mxGeometry relative="1" as="geometry" />
        </mxCell>
        <mxCell id="NPe-8h-_CcpF1HoH4NOW-247" style="edgeStyle=orthogonalEdgeStyle;rounded=0;orthogonalLoop=1;jettySize=auto;html=1;exitX=1;exitY=0.5;exitDx=0;exitDy=0;entryX=0;entryY=0.5;entryDx=0;entryDy=0;entryPerimeter=0;" parent="1" source="NPe-8h-_CcpF1HoH4NOW-242" target="NPe-8h-_CcpF1HoH4NOW-245" edge="1">
          <mxGeometry relative="1" as="geometry" />
        </mxCell>
        <mxCell id="NPe-8h-_CcpF1HoH4NOW-249" value="상품 카테고리&amp;nbsp;DB" style="strokeWidth=2;html=1;shape=mxgraph.flowchart.database;whiteSpace=wrap;" parent="1" vertex="1">
          <mxGeometry x="-135" y="588" width="100" height="70" as="geometry" />
        </mxCell>
        <mxCell id="NPe-8h-_CcpF1HoH4NOW-258" value="상품 카테고리&amp;nbsp;DB" style="strokeWidth=2;html=1;shape=mxgraph.flowchart.database;whiteSpace=wrap;" parent="1" vertex="1">
          <mxGeometry x="-690" y="455.25" width="100" height="70" as="geometry" />
        </mxCell>
        <mxCell id="NPe-8h-_CcpF1HoH4NOW-261" value="" style="edgeStyle=orthogonalEdgeStyle;rounded=0;orthogonalLoop=1;jettySize=auto;html=1;" parent="1" source="NPe-8h-_CcpF1HoH4NOW-259" target="NPe-8h-_CcpF1HoH4NOW-140" edge="1">
          <mxGeometry relative="1" as="geometry" />
        </mxCell>
        <mxCell id="NPe-8h-_CcpF1HoH4NOW-259" value="상품 등록" style="strokeWidth=2;html=1;shape=mxgraph.flowchart.display;whiteSpace=wrap;strokeColor=#FFD966;" parent="1" vertex="1">
          <mxGeometry x="461" y="130" width="100" height="60" as="geometry" />
        </mxCell>
        <mxCell id="NPe-8h-_CcpF1HoH4NOW-262" value="색상 변경" style="rounded=1;whiteSpace=wrap;html=1;strokeWidth=2;strokeColor=#009900;" parent="1" vertex="1">
          <mxGeometry x="1525" y="409.995" width="120" height="60" as="geometry" />
        </mxCell>
        <mxCell id="nD0UYpK1AcCFRPNusd-Y-9" value="" style="edgeStyle=orthogonalEdgeStyle;rounded=0;orthogonalLoop=1;jettySize=auto;html=1;entryX=0.5;entryY=1;entryDx=0;entryDy=0;entryPerimeter=0;" edge="1" parent="1">
          <mxGeometry relative="1" as="geometry">
            <mxPoint x="40" y="-201.25" as="sourcePoint" />
            <mxPoint x="420" y="-505" as="targetPoint" />
            <Array as="points">
              <mxPoint x="40" y="-120" />
              <mxPoint x="420" y="-120" />
            </Array>
          </mxGeometry>
        </mxCell>
        <mxCell id="nD0UYpK1AcCFRPNusd-Y-31" value="내보내기" style="edgeLabel;html=1;align=center;verticalAlign=middle;resizable=0;points=[];" vertex="1" connectable="0" parent="nD0UYpK1AcCFRPNusd-Y-9">
          <mxGeometry x="-0.4677" relative="1" as="geometry">
            <mxPoint as="offset" />
          </mxGeometry>
        </mxCell>
        <mxCell id="nD0UYpK1AcCFRPNusd-Y-5" value="상품 DB" style="strokeWidth=2;html=1;shape=mxgraph.flowchart.database;whiteSpace=wrap;" vertex="1" parent="1">
          <mxGeometry x="-10" y="-266.25" width="100" height="70" as="geometry" />
        </mxCell>
        <mxCell id="nD0UYpK1AcCFRPNusd-Y-6" value="변경 이력 DB" style="strokeWidth=2;html=1;shape=mxgraph.flowchart.database;whiteSpace=wrap;" vertex="1" parent="1">
          <mxGeometry x="195" y="-301.25" width="100" height="70" as="geometry" />
        </mxCell>
        <mxCell id="nD0UYpK1AcCFRPNusd-Y-10" value="- + 버튼을 누를 경우 추가 하는 창띄우기&lt;br&gt;- 모달 창 또는 팝업창으로 입력창 띄우기&amp;nbsp;" style="text;html=1;align=left;verticalAlign=middle;resizable=0;points=[];autosize=1;strokeColor=none;fillColor=none;" vertex="1" parent="1">
          <mxGeometry x="-150" y="190" width="240" height="40" as="geometry" />
        </mxCell>
        <mxCell id="nD0UYpK1AcCFRPNusd-Y-14" value="상품 구분&lt;br&gt;카테고리&lt;br&gt;수량&lt;br&gt;판내 가격&lt;br&gt;할인률&lt;br&gt;판매 유무&lt;br&gt;상품설명&lt;br&gt;이미지 변경" style="rounded=1;whiteSpace=wrap;html=1;absoluteArcSize=1;arcSize=14;strokeWidth=2;align=left;strokeColor=#009900;" vertex="1" parent="1">
          <mxGeometry x="-20" y="-446.25" width="120" height="130" as="geometry" />
        </mxCell>
        <mxCell id="nD0UYpK1AcCFRPNusd-Y-22" value="" style="edgeStyle=orthogonalEdgeStyle;rounded=0;orthogonalLoop=1;jettySize=auto;html=1;" edge="1" parent="1" source="nD0UYpK1AcCFRPNusd-Y-15" target="nD0UYpK1AcCFRPNusd-Y-14">
          <mxGeometry relative="1" as="geometry" />
        </mxCell>
        <mxCell id="nD0UYpK1AcCFRPNusd-Y-15" value="수정할 정보 입력" style="shape=parallelogram;html=1;strokeWidth=2;perimeter=parallelogramPerimeter;whiteSpace=wrap;rounded=1;arcSize=12;size=0.23;strokeColor=#009900;" vertex="1" parent="1">
          <mxGeometry x="-40" y="-560" width="160" height="60" as="geometry" />
        </mxCell>
        <mxCell id="nD0UYpK1AcCFRPNusd-Y-24" style="edgeStyle=orthogonalEdgeStyle;rounded=0;orthogonalLoop=1;jettySize=auto;html=1;entryX=0.5;entryY=1;entryDx=0;entryDy=0;entryPerimeter=0;exitX=0.5;exitY=1;exitDx=0;exitDy=0;exitPerimeter=0;" edge="1" parent="1" source="NPe-8h-_CcpF1HoH4NOW-113" target="NPe-8h-_CcpF1HoH4NOW-103">
          <mxGeometry relative="1" as="geometry">
            <Array as="points">
              <mxPoint x="245" y="-430" />
              <mxPoint x="420" y="-430" />
            </Array>
          </mxGeometry>
        </mxCell>
        <mxCell id="nD0UYpK1AcCFRPNusd-Y-25" value="NO" style="edgeLabel;html=1;align=center;verticalAlign=middle;resizable=0;points=[];" vertex="1" connectable="0" parent="nD0UYpK1AcCFRPNusd-Y-24">
          <mxGeometry x="-0.8215" y="-4" relative="1" as="geometry">
            <mxPoint x="4" y="2" as="offset" />
          </mxGeometry>
        </mxCell>
        <mxCell id="nD0UYpK1AcCFRPNusd-Y-26" style="edgeStyle=orthogonalEdgeStyle;rounded=0;orthogonalLoop=1;jettySize=auto;html=1;entryX=0.5;entryY=1;entryDx=0;entryDy=0;entryPerimeter=0;exitX=0;exitY=0.5;exitDx=0;exitDy=0;exitPerimeter=0;" edge="1" parent="1" source="NPe-8h-_CcpF1HoH4NOW-112" target="NPe-8h-_CcpF1HoH4NOW-103">
          <mxGeometry relative="1" as="geometry">
            <Array as="points">
              <mxPoint x="420" y="-120" />
            </Array>
          </mxGeometry>
        </mxCell>
        <mxCell id="nD0UYpK1AcCFRPNusd-Y-32" value="내보내기" style="edgeLabel;html=1;align=center;verticalAlign=middle;resizable=0;points=[];" vertex="1" connectable="0" parent="nD0UYpK1AcCFRPNusd-Y-26">
          <mxGeometry x="-0.8124" relative="1" as="geometry">
            <mxPoint as="offset" />
          </mxGeometry>
        </mxCell>
        <mxCell id="nD0UYpK1AcCFRPNusd-Y-28" style="edgeStyle=orthogonalEdgeStyle;rounded=0;orthogonalLoop=1;jettySize=auto;html=1;exitX=0;exitY=0.5;exitDx=0;exitDy=0;exitPerimeter=0;entryX=0.5;entryY=1;entryDx=0;entryDy=0;entryPerimeter=0;" edge="1" parent="1" source="NPe-8h-_CcpF1HoH4NOW-107" target="NPe-8h-_CcpF1HoH4NOW-103">
          <mxGeometry relative="1" as="geometry" />
        </mxCell>
        <mxCell id="nD0UYpK1AcCFRPNusd-Y-29" value="NO" style="edgeLabel;html=1;align=center;verticalAlign=middle;resizable=0;points=[];" vertex="1" connectable="0" parent="nD0UYpK1AcCFRPNusd-Y-28">
          <mxGeometry x="-0.4632" relative="1" as="geometry">
            <mxPoint as="offset" />
          </mxGeometry>
        </mxCell>
      </root>
    </mxGraphModel>
  </diagram>
</mxfile>
